<?xml version="1.0" encoding="UTF-8" standalone="no"?>
<svg
   xmlns:osb="http://www.openswatchbook.org/uri/2009/osb"
   xmlns:dc="http://purl.org/dc/elements/1.1/"
   xmlns:cc="http://creativecommons.org/ns#"
   xmlns:rdf="http://www.w3.org/1999/02/22-rdf-syntax-ns#"
   xmlns:svg="http://www.w3.org/2000/svg"
   xmlns="http://www.w3.org/2000/svg"
   xmlns:xlink="http://www.w3.org/1999/xlink"
   xmlns:sodipodi="http://sodipodi.sourceforge.net/DTD/sodipodi-0.dtd"
   xmlns:inkscape="http://www.inkscape.org/namespaces/inkscape"
   width="210mm"
   height="297mm"
   viewBox="0 0 210 297"
   version="1.1"
   id="svg945"
   inkscape:version="1.0.2 (e86c870879, 2021-01-15, custom)"
   sodipodi:docname="Retro.svg">
  <defs
     id="defs939">
    <linearGradient
       id="linearGradient4423"
       osb:paint="solid">
      <stop
         style="stop-color:#000000;stop-opacity:1;"
         offset="0"
         id="stop4421" />
    </linearGradient>
    <linearGradient
       id="linearGradient3707"
       osb:paint="gradient">
      <stop
         style="stop-color:#000000;stop-opacity:1;"
         offset="0"
         id="stop3703" />
      <stop
         style="stop-color:#000000;stop-opacity:0;"
         offset="1"
         id="stop3705" />
    </linearGradient>
    <linearGradient
       id="linearGradient3681"
       osb:paint="solid">
      <stop
         style="stop-color:#1a1a1a;stop-opacity:1;"
         offset="0"
         id="stop3679" />
    </linearGradient>
    <linearGradient
       inkscape:collect="always"
       xlink:href="#linearGradient4423"
       id="linearGradient4425"
       x1="113.81052"
       y1="105.15437"
       x2="129.3312"
       y2="105.15437"
       gradientUnits="userSpaceOnUse" />
    <filter
       inkscape:collect="always"
       style="color-interpolation-filters:sRGB"
       id="filter4436"
       x="-0.011438714"
       width="1.0228774"
       y="-0.0090662026"
       height="1.0181324">
      <feGaussianBlur
         inkscape:collect="always"
         stdDeviation="0.094665939"
         id="feGaussianBlur4438" />
    </filter>
    <filter
       inkscape:collect="always"
       style="color-interpolation-filters:sRGB"
       id="filter4640"
       x="-0.0034154164"
       width="1.0068308"
       y="-0.0031152594"
       height="1.0062305">
      <feGaussianBlur
         inkscape:collect="always"
         stdDeviation="0.021708927"
         id="feGaussianBlur4642" />
    </filter>
    <filter
       inkscape:collect="always"
       style="color-interpolation-filters:sRGB"
       id="filter5019"
       x="-0.015885951"
       width="1.0317719"
       y="-0.01414002"
       height="1.02828">
      <feGaussianBlur
         inkscape:collect="always"
         stdDeviation="0.030910573"
         id="feGaussianBlur5021" />
    </filter>
    <filter
       inkscape:collect="always"
       style="color-interpolation-filters:sRGB"
       id="filter5307"
       x="-0.0058493352"
       width="1.0116987"
       y="-0.029628854"
       height="1.0592577">
      <feGaussianBlur
         inkscape:collect="always"
         stdDeviation="0.021165924"
         id="feGaussianBlur5309" />
    </filter>
    <filter
       inkscape:collect="always"
       style="color-interpolation-filters:sRGB"
       id="filter5701"
       x="-0.00012502113"
       width="1.00025"
       y="-7.9507146e-05"
       height="1.000159">
      <feGaussianBlur
         inkscape:collect="always"
         stdDeviation="0.0002149431"
         id="feGaussianBlur5703" />
    </filter>
  </defs>
  <sodipodi:namedview
     id="base"
     pagecolor="#ffffff"
     bordercolor="#666666"
     borderopacity="1.0"
     inkscape:pageopacity="0.0"
     inkscape:pageshadow="2"
     inkscape:zoom="0.7"
     inkscape:cx="215.23171"
     inkscape:cy="330.47206"
     inkscape:document-units="mm"
     inkscape:current-layer="g5717"
     inkscape:document-rotation="0"
     showgrid="false"
     inkscape:snap-global="false"
     inkscape:window-width="1152"
     inkscape:window-height="801"
     inkscape:window-x="-8"
     inkscape:window-y="-8"
     inkscape:window-maximized="1" />
  <metadata
     id="metadata942">
    <rdf:RDF>
      <cc:Work
         rdf:about="">
        <dc:format>image/svg+xml</dc:format>
        <dc:type
           rdf:resource="http://purl.org/dc/dcmitype/StillImage" />
        <dc:title></dc:title>
      </cc:Work>
    </rdf:RDF>
  </metadata>
  <g
     inkscape:label="Layer 1"
     inkscape:groupmode="layer"
     id="layer1">
    <text
       xml:space="preserve"
       style="font-style:normal;font-weight:normal;font-size:10.5833px;line-height:1.25;font-family:sans-serif;letter-spacing:0px;word-spacing:0px;fill:#000000;fill-opacity:1;stroke:none;stroke-width:0.264583"
       x="101.69605"
       y="113.92363"
       id="text1636"><tspan
         sodipodi:role="line"
         id="tspan1634"
         x="101.69605"
         y="113.92363"
         style="stroke-width:0.264583" /></text>
    <text
       xml:space="preserve"
       style="font-style:normal;font-weight:normal;font-size:10.5833px;line-height:1.25;font-family:sans-serif;letter-spacing:0px;word-spacing:0px;fill:#000000;fill-opacity:1;stroke:none;stroke-width:0.264583"
       x="92.604164"
       y="102.71503"
       id="text1640"><tspan
         sodipodi:role="line"
         id="tspan1638"
         x="92.604164"
         y="102.71503"
         style="stroke-width:0.264583" /></text>
    <text
       xml:space="preserve"
       style="font-style:normal;font-weight:normal;font-size:2.4149px;line-height:1.25;font-family:'Arial Rounded MT Bold';letter-spacing:0px;word-spacing:0px;opacity:0.995;fill:#f9f9f9;fill-opacity:1;stroke:#000000;stroke-width:0.0603726;filter:url(#filter5307);-inkscape-font-specification:'Arial Rounded MT Bold, Normal';font-stretch:normal;font-variant:normal;font-variant-ligatures:normal;font-variant-caps:normal;font-variant-numeric:normal;font-variant-east-asian:normal;"
       x="91.238632"
       y="73.431602"
       id="text1623"
       transform="scale(0.79155781,1.2633316)"><tspan
         sodipodi:role="line"
         id="tspan1621"
         x="91.238632"
         y="73.431602"
         style="font-style:normal;font-variant:normal;font-weight:normal;font-stretch:normal;font-size:2.41489999px;font-family:'Arial Rounded MT Bold';-inkscape-font-specification:'Arial Rounded MT Bold, Normal';font-variant-ligatures:normal;font-variant-caps:normal;font-variant-numeric:normal;font-variant-east-asian:normal;stroke-width:0.0603726;fill:#f9f9f9;stroke:#000000;">START</tspan></text>
    <g
       id="g893"
       transform="translate(2.7403274,0.47247024)">
      <g
         id="g880">
        <g
           id="g3701"
           style="fill:#6f7c91;fill-opacity:0.773529;stroke:#000000;stroke-width:0.4;stroke-miterlimit:4;stroke-dasharray:none;stroke-opacity:1"
           transform="translate(0,0.28348214)">
          <path
             id="path3685"
             style="opacity:1;fill:#6f7c91;fill-opacity:0.773529;stroke:#000000;stroke-width:0.4;stroke-miterlimit:4;stroke-dasharray:none;stroke-opacity:1;paint-order:stroke markers fill"
             d="m 91.849965,65.173373 c -7.575106,0.12035 -15.482931,0.126719 -23.196132,0.166192 -0.176329,9e-4 -0.318343,0.148088 -0.318343,0.331957 v 0.781475 h -0.34592 c -0.137736,0 -0.248593,0.115595 -0.248593,0.259222 v 1.595511 c 0,0.143617 0.110857,0.259645 0.248593,0.259645 h 0.34592 v 0.94809 h -0.790791 c -0.112912,0 -0.203983,0.09497 -0.203983,0.212706 v 1.476681 c 0,0.117742 0.09107,0.212284 0.203983,0.212284 h 0.790791 v 1.03647 h -1.606725 c -0.112914,0 -0.203982,0.09496 -0.203982,0.212705 v 0.383972 h -0.37309 c -0.09249,0 -0.167082,0.07736 -0.167082,0.173804 v 1.552377 c 0,0.09645 0.07458,0.173801 0.167082,0.173801 h 0.37309 v 0.306586 c 0,0.117742 0.09107,0.212707 0.203982,0.212707 h 1.606725 v 1.563795 l 0.955031,0.01523 v 1.175595 l 0.786737,0.02707 -0.02637,1.312606 -0.708061,-0.02749 -0.0032,0.717621 c -0.352779,0.0094 -0.733466,0.02196 -1.0041,0.02622 v 0.52479 1.021667 h -0.68497 c -0.09249,0 -0.166677,0.07736 -0.166677,0.173801 v 0.755681 h -0.882032 c -0.09249,0 -0.166676,0.07736 -0.166676,0.173801 v 1.456385 c 0,0.09645 0.07419,0.174225 0.166676,0.174225 h 1.239309 c 0.09249,0 0.167077,-0.07778 0.167077,-0.174225 v -0.75568 h 0.327269 v 1.324025 h -0.284281 c -0.06047,0 -0.10909,0.0507 -0.10909,0.113753 v 0.951895 c 0,0.06305 0.04862,0.114175 0.10909,0.114175 h 0.284281 v 0.351411 h -0.808636 c -0.06047,0 -0.109088,0.05072 -0.109088,0.113754 v 0.951893 c 0,0.06305 0.04862,0.113757 0.109088,0.113753 h 0.808636 v 0.619514 h -0.388098 c -0.06383,0 -0.115171,0.05353 -0.115171,0.120097 v 1.004755 c 0,0.06656 0.05134,0.120094 0.115171,0.120094 h 0.388098 v 0.529017 h -1.360566 c -0.05731,0 -0.103415,0.0481 -0.103415,0.107837 v 1.845423 c 0,0.0597 0.04609,0.107837 0.103415,0.107837 h 1.360566 v 0.839003 h -0.456631 c -0.04442,0 -0.08029,0.037 -0.08029,0.0833 v 1.42975 c 0,0.0463 0.03587,0.0837 0.08029,0.0837 h 0.456631 v 0.30744 c 0,0.18387 0.142012,0.33154 0.318343,0.33154 h 14.667289 c 2.415091,2.51101 5.450148,3.88462 8.58313,3.88454 7.44131,-1e-5 13.473735,-7.589939 13.473865,-16.952676 7e-5,-9.362911 -6.032435,-16.953086 -13.473865,-16.953096 -0.0181,-4.6e-5 -0.0364,-4.6e-5 -0.0543,0 z" />
        </g>
        <ellipse
           style="opacity:1;mix-blend-mode:normal;fill:#6f7c90;fill-opacity:1;stroke:#160000;stroke-width:0.414;stroke-linecap:round;stroke-linejoin:miter;stroke-miterlimit:4;stroke-dasharray:none;stroke-opacity:1;paint-order:stroke markers fill;filter:url(#filter4436)"
           id="path1625"
           cx="92.57682"
           cy="82.418022"
           rx="9.9311104"
           ry="12.529957" />
        <path
           id="rect1604"
           style="fill:#000080;fill-opacity:0.676471;stroke:#000000;stroke-width:0.243;stroke-linecap:round;stroke-linejoin:miter;stroke-miterlimit:4;stroke-dasharray:none;stroke-opacity:0.973529;paint-order:stroke markers fill;filter:url(#filter5019)"
           d="m 73.992669,87.292679 c -0.12407,0.187137 -0.267623,0.383948 -0.27561,0.633971 -0.103832,0.57162 0.3748,1.151161 0.952228,1.172322 0.347984,0.02565 0.704189,-0.150655 0.886147,-0.450038 0.200945,-0.210224 0.375649,-0.44699 0.566088,-0.667811 l 1.939632,-2.335886 c 0.104392,-0.206977 0.29696,-0.397923 0.302993,-0.655193 0.08047,-0.575161 -0.41967,-1.136331 -0.997942,-1.134293 -0.322794,-0.01002 -0.56669,0.07177 -0.839609,0.389769 -0.09273,0.100854 -0.17254,0.214543 -0.260441,0.309592 l -2.2733,2.737722 z"
           sodipodi:nodetypes="cccccccccccc" />
        <path
           id="rect1573"
           style="fill:#333333;fill-opacity:0.85;stroke:#000000;stroke-width:0.266;stroke-linecap:round;stroke-linejoin:miter;stroke-miterlimit:4;stroke-dasharray:none;stroke-opacity:1;paint-order:stroke markers fill;filter:url(#filter4640)"
           d="m 90.689887,74.022049 c -0.37096,0.111081 -0.15582,0.604662 -0.21331,0.899075 0,1.790902 0,3.581813 0,5.372713 -1.82926,0.0102 -3.6626,-0.0204 -5.4893,0.0153 -0.2311,0.22345 -0.0712,0.61321 -0.11868,0.91077 0.0102,1.17213 -0.0204,2.34831 0.0152,3.51792 0.22317,0.22725 0.61248,0.0923 0.90962,0.15082 1.54529,0.068 3.09058,0.13606 4.63588,0.20409 0.0269,1.83368 0.0102,3.67198 0.0644,5.50276 0.22287,0.2475 0.62342,0.0817 0.92713,0.13004 1.15966,-0.0112 2.32376,0.0223 3.48068,-0.0167 0.24812,-0.22274 0.0821,-0.62368 0.13047,-0.92755 0,-1.6416 0,-3.2832 0,-4.9248 1.65021,-0.0101 3.30444,0.0203 4.95212,-0.0152 0.231183,-0.22308 0.0711,-0.61295 0.118673,-0.91032 -0.0102,-1.17216 0.0204,-2.34837 -0.0152,-3.51801 -0.222673,-0.23193 -0.612953,-0.0715 -0.910323,-0.11911 -1.38175,0 -2.76349,0 -4.14524,0 0,-2.01932 0,-4.038641 0,-6.057961 -0.11066,-0.371604 -0.60458,-0.156357 -0.89907,-0.213835 -1.14767,0 -2.29534,0 -3.443,0 z" />
      </g>
      <g
         id="g4813"
         style="fill:#ffffff;stroke:#000000;stroke-width:0.4;stroke-miterlimit:4;stroke-dasharray:none;stroke-opacity:0.826471">
        <path
           sodipodi:type="star"
           style="fill:#ffffff;fill-opacity:1;stroke:#000000;stroke-width:0.4;stroke-linecap:round;stroke-linejoin:round;stroke-miterlimit:4;stroke-dasharray:none;stroke-opacity:0.826471;paint-order:normal;filter:url(#filter4640)"
           id="path1593"
           sodipodi:sides="3"
           sodipodi:cx="-121.89658"
           sodipodi:cy="-99.447929"
           sodipodi:r1="2.1016202"
           sodipodi:r2="1.05081"
           sodipodi:arg1="1.5707963"
           sodipodi:arg2="2.6179939"
           inkscape:flatsided="true"
           inkscape:rounded="0"
           inkscape:randomized="0"
           inkscape:transform-center-x="3.8030922e-06"
           transform="rotate(180,-14.542587,-11.390467)"
           inkscape:transform-center-y="-0.52540245"
           d="m -121.89658,-97.346309 -1.82006,-3.152431 3.64011,0 z" />
        <path
           sodipodi:type="star"
           style="fill:#ffffff;fill-opacity:1;stroke:#000000;stroke-width:0.4;stroke-linecap:round;stroke-linejoin:round;stroke-miterlimit:4;stroke-dasharray:none;stroke-opacity:0.826471;paint-order:normal;filter:url(#filter4640)"
           id="path4203"
           sodipodi:sides="3"
           sodipodi:cx="92.744606"
           sodipodi:cy="88.248337"
           sodipodi:r1="2.1016202"
           sodipodi:r2="1.05081"
           sodipodi:arg1="1.5707963"
           sodipodi:arg2="2.6179939"
           inkscape:flatsided="true"
           inkscape:rounded="0"
           inkscape:randomized="0"
           inkscape:transform-center-x="-1.1395143e-05"
           inkscape:transform-center-y="0.52539997"
           d="m 92.744606,90.349957 -1.820056,-3.15243 3.640112,0 z" />
        <path
           sodipodi:type="star"
           style="fill:#ffffff;fill-opacity:1;stroke:#000000;stroke-width:0.4;stroke-linecap:round;stroke-linejoin:round;stroke-miterlimit:4;stroke-dasharray:none;stroke-opacity:0.826471;paint-order:normal;filter:url(#filter4640)"
           id="path4205"
           sodipodi:sides="3"
           sodipodi:cx="-117.1523"
           sodipodi:cy="-105.17064"
           sodipodi:r1="2.1016202"
           sodipodi:r2="1.05081"
           sodipodi:arg1="1.5707963"
           sodipodi:arg2="2.6179939"
           inkscape:flatsided="true"
           inkscape:rounded="0"
           inkscape:randomized="0"
           inkscape:transform-center-x="0.52541834"
           inkscape:transform-center-y="1.6975065e-05"
           transform="rotate(90,-108.77162,90.959397)"
           d="m -117.1523,-103.06902 -1.82005,-3.15243 3.64011,0 z" />
        <path
           sodipodi:type="star"
           style="fill:#ffffff;fill-opacity:1;stroke:#000000;stroke-width:0.4;stroke-linecap:round;stroke-linejoin:round;stroke-miterlimit:4;stroke-dasharray:none;stroke-opacity:0.826471;paint-order:normal;filter:url(#filter4640)"
           id="path4207"
           sodipodi:sides="3"
           sodipodi:cx="-117.1523"
           sodipodi:cy="-105.17064"
           sodipodi:r1="2.1016202"
           sodipodi:r2="1.05081"
           sodipodi:arg1="1.5707963"
           sodipodi:arg2="2.6179939"
           inkscape:flatsided="true"
           inkscape:rounded="0"
           inkscape:randomized="0"
           inkscape:transform-center-x="-0.52542157"
           inkscape:transform-center-y="1.6975065e-05"
           transform="matrix(0,1,1,0,202.72306,199.68378)"
           d="m -117.1523,-103.06902 -1.82005,-3.15243 3.64011,0 z" />
      </g>
    </g>
    <g
       id="g5717"
       transform="translate(18.804315,-0.37797619)">
      <g
         id="g873"
         transform="translate(-16.303441,1.0690781)">
        <path
           id="rect5319"
           style="opacity:1;fill:#1a1a1a;fill-opacity:1;stroke:#000000;stroke-width:0.141303;stroke-linejoin:round;stroke-miterlimit:4;stroke-dasharray:none;stroke-opacity:0.973529;paint-order:normal;filter:url(#filter5701)"
           d="m 71.047721,59.086339 c -0.01865,0 -0.03352,0.01234 -0.03352,0.02794 v 0.587432 h -0.378582 c -0.02584,0 -0.0467,0.01702 -0.0467,0.03854 v 0.874608 c 0,0.02153 0.02086,0.0389 0.0467,0.0389 h 0.385372 v 0.488406 h -0.385372 c -0.02584,0 -0.0467,0.01701 -0.0467,0.03854 v 0.874608 c 0,0.02151 0.02086,0.0389 0.0467,0.0389 h 0.359483 v 0.80741 h -0.343781 c -0.03824,0 -0.06918,0.02576 -0.06918,0.05765 v 0.70874 H 69.97522 c -0.03784,0 -0.06833,0.0254 -0.06833,0.05694 v 1.792717 c 0,0.03153 0.03049,0.05693 0.06833,0.05693 h 3.98955 c 0.03784,0 0.06833,-0.0254 0.06833,-0.05693 v -1.792708 c 3e-6,-0.03153 -0.03049,-0.05694 -0.06833,-0.05694 h -0.618804 v -0.70874 c 0,-0.03189 -0.03049,-0.05766 -0.06875,-0.05766 h -0.227922 v -0.807409 h 0.289454 c 0.02584,0 0.0467,-0.01737 0.0467,-0.0389 v -0.874608 c 0,-0.02151 -0.02085,-0.03854 -0.0467,-0.03854 h -0.266959 v -0.488408 h 0.266959 c 0.02584,0 0.0467,-0.01737 0.0467,-0.0389 v -0.874611 c 0,-0.02154 -0.02085,-0.03854 -0.0467,-0.03854 h -0.27375 v -0.587431 c 0,-0.01553 -0.01488,-0.02794 -0.03352,-0.02794 z" />
        <g
           id="g5711">
          <path
             style="fill:#000000;stroke:#000000;stroke-width:0.248207px;stroke-linecap:butt;stroke-linejoin:miter;stroke-opacity:1"
             d="m 71.628496,59.787419 c 0,0 -1.193909,-10.184116 4.413729,-7.287314 4.742258,2.449764 7.663746,-3.380113 7.663746,-3.380113 l 0.60356,0.492382 c 0,0 -1.083716,2.700684 -4.533017,4.222641 -2.785063,1.22887 -5.447446,-2.311104 -6.616466,-0.07538 -1.261288,2.412189 -0.689843,4.641188 -0.681822,6.038531 -0.603509,0.0097 0.164521,-0.0018 -0.84973,-0.01075 z"
             id="path5349"
             sodipodi:nodetypes="csccssccc" />
          <ellipse
             style="opacity:1;fill:#4d4d4d;fill-opacity:0.902941;stroke:#000000;stroke-width:0.243;stroke-linejoin:round;stroke-miterlimit:4;stroke-dasharray:none;stroke-opacity:0.973529;paint-order:normal"
             id="path5705"
             cx="83.917847"
             cy="49.424232"
             rx="0.4252232"
             ry="0.47247022" />
        </g>
      </g>
    </g>
  </g>
</svg>
